<svg width="41" height="74" viewBox="0 0 41 74" fill="none" xmlns="http://www.w3.org/2000/svg">
<path d="M18.231 29.458C22.351 29.458 26.059 30.4537 29.355 32.445C32.651 34.3677 35.2603 37.0113 37.183 40.376C39.1057 43.672 40.067 47.38 40.067 51.5C40.067 54.59 39.5177 57.474 38.419 60.152C37.3203 62.7613 35.7753 65.0617 33.784 67.053C31.7927 69.0443 29.458 70.5893 26.78 71.688C24.1707 72.7867 21.321 73.336 18.231 73.336C14.523 73.336 11.0553 72.4777 7.828 70.761C4.60067 68.9757 1.99133 66.6067 0 63.654L4.738 60.461C6.31733 62.7957 8.24 64.581 10.506 65.817C12.772 66.9843 15.347 67.568 18.231 67.568C21.2523 67.568 23.9647 66.847 26.368 65.405C28.7713 63.963 30.694 62.0403 32.136 59.637C33.578 57.165 34.299 54.4527 34.299 51.5C34.299 48.6847 33.6123 46.0753 32.239 43.672C30.9343 41.2 29.1147 39.2087 26.78 37.698C24.514 36.1873 21.9047 35.432 18.952 35.432H7.519L27.398 5.871H4.532V0H34.402V5.047L18.025 29.458H18.231Z" fill="#1A1A1A"/>
</svg>
