<svg width="37" height="74" viewBox="0 0 37 74" fill="none" xmlns="http://www.w3.org/2000/svg">
<path d="M1.339 12.3652C2.43767 9.48115 3.87967 7.14648 5.665 5.36115C7.45033 3.57582 9.44167 2.23682 11.639 1.34415C13.905 0.451485 16.171 0.00514986 18.437 0.00514986C21.3897 -0.0635159 24.1707 0.554486 26.78 1.85915C29.458 3.16382 31.6553 5.05215 33.372 7.52415C35.0887 9.92748 35.947 12.8802 35.947 16.3822C35.947 18.4422 35.5693 20.7425 34.814 23.2832C34.0587 25.7552 32.548 28.8108 30.282 32.4502L6.798 67.6762H36.05V73.1352H0V67.6762L25.338 29.2572C26.7113 27.0598 27.707 25.3088 28.325 24.0042C28.943 22.6308 29.355 21.4635 29.561 20.5022C29.767 19.4722 29.87 18.4422 29.87 17.4122C29.87 14.8715 29.3207 12.7428 28.222 11.0261C27.1233 9.24082 25.6813 7.90182 23.896 7.00915C22.1793 6.04782 20.3253 5.56715 18.334 5.56715C16.7547 5.56715 15.2097 5.87615 13.699 6.49415C12.257 7.11215 10.918 8.07349 9.682 9.37815C8.51467 10.6142 7.55333 12.2622 6.798 14.3222L1.339 12.3652Z" fill="#1A1A1A"/>
</svg>
