<svg width="40" height="40" viewBox="0 0 40 40" fill="none" xmlns="http://www.w3.org/2000/svg">
<path opacity="0.5" d="M6.66412 16.123C6.66412 9.05967 12.2608 3.33301 19.1641 3.33301C26.0675 3.33301 31.6641 9.05967 31.6641 16.123C31.6698 17.9141 31.3024 19.6868 30.5853 21.3282C29.8682 22.9695 28.8172 24.4435 27.4991 25.6563C26.6491 26.4347 26.0175 27.013 25.5708 27.433C25.3446 27.6455 25.1223 27.8622 24.9041 28.083L24.8625 28.128L24.8491 28.1447C24.4541 28.6413 24.3691 28.7697 24.3191 28.8863C24.2691 29.003 24.2308 29.153 24.1308 29.7863C24.0925 30.0363 24.0875 30.463 24.0875 31.628V31.678C24.0875 32.3597 24.0875 32.948 24.0458 33.4297C24.0008 33.9397 23.9008 34.4463 23.6325 34.9213C23.3354 35.4499 22.9042 35.8908 22.3825 36.1997C21.9191 36.4747 21.4241 36.5763 20.9258 36.623C20.4541 36.6663 19.8791 36.6663 19.2125 36.6663H19.1158C18.4491 36.6663 17.8741 36.6663 17.4025 36.623C16.9025 36.5763 16.4091 36.473 15.9441 36.1997C15.423 35.8906 14.9924 35.4497 14.6958 34.9213C14.4291 34.4463 14.3291 33.9413 14.2825 33.4297C14.2391 32.9463 14.2391 32.3597 14.2391 31.678V31.628C14.2391 30.463 14.2358 30.0363 14.1958 29.7863C14.0958 29.153 14.0608 29.003 14.0091 28.8863C13.9591 28.7697 13.8741 28.6413 13.4791 28.143L13.4658 28.1263L13.4241 28.083L13.2775 27.933C13.1065 27.7639 12.9332 27.5972 12.7575 27.433C12.3108 27.013 11.6791 26.4347 10.8291 25.6547C9.51129 24.442 8.46038 22.9683 7.74331 21.3273C7.02624 19.6862 6.65871 17.9139 6.66412 16.123Z" fill="black"/>
<path d="M21.8112 32.7913H16.5278C16.5323 32.9513 16.54 33.0946 16.5512 33.2213C16.5812 33.5713 16.6345 33.6963 16.6695 33.7596C16.7691 33.9355 16.9127 34.0825 17.0862 34.1863C17.1478 34.2213 17.2712 34.2763 17.6128 34.3063C17.9695 34.3396 18.4395 34.3413 19.1695 34.3413C19.8978 34.3413 20.3695 34.3413 20.7262 34.3079C21.0662 34.2746 21.1912 34.2213 21.2528 34.1863C21.4263 34.0825 21.5699 33.9355 21.6695 33.7596C21.7028 33.6963 21.7562 33.5696 21.7862 33.2213C21.7973 33.0957 21.8056 32.9524 21.8112 32.7913ZM21.0195 13.6279C21.5312 14.0013 21.6495 14.7279 21.2845 15.2496L19.3212 18.0629H21.6578C21.868 18.0639 22.0738 18.1234 22.2522 18.2347C22.4306 18.3459 22.5745 18.5046 22.6678 18.6929C22.7638 18.8833 22.8066 19.0961 22.7917 19.3088C22.7767 19.5215 22.7045 19.7262 22.5828 19.9013L19.3362 24.5496C19.2517 24.6737 19.1432 24.7796 19.0169 24.8608C18.8907 24.942 18.7494 24.997 18.6014 25.0223C18.4534 25.0477 18.3019 25.0429 18.1558 25.0084C18.0097 24.9739 17.8721 24.9102 17.7512 24.8213C17.5056 24.6379 17.3407 24.3664 17.2913 24.0639C17.2419 23.7615 17.3117 23.4516 17.4862 23.1996L19.4495 20.3863H17.1128C16.9024 20.3851 16.6965 20.3254 16.5181 20.2138C16.3398 20.1023 16.196 19.9433 16.1028 19.7546C16.0071 19.5644 15.9645 19.352 15.9795 19.1396C15.9944 18.9272 16.0664 18.7228 16.1878 18.5479L19.4345 13.8979C19.5189 13.7738 19.6275 13.668 19.7537 13.5867C19.88 13.5055 20.0213 13.4506 20.1693 13.4252C20.3172 13.3999 20.4688 13.4046 20.6148 13.4391C20.7609 13.4737 20.8986 13.5373 21.0195 13.6263" fill="black"/>
</svg>
