<svg width="16" height="16" viewBox="0 0 16 16" fill="none" xmlns="http://www.w3.org/2000/svg">
<path d="M0.75 7.75C0.75 4.941 0.75 3.537 1.424 2.528C1.71591 2.09106 2.09106 1.71591 2.528 1.424C3.537 0.75 4.94 0.75 7.75 0.75C10.56 0.75 11.963 0.75 12.972 1.424C13.4089 1.71591 13.7841 2.09106 14.076 2.528C14.75 3.537 14.75 4.94 14.75 7.75C14.75 10.56 14.75 11.963 14.076 12.972C13.7841 13.4089 13.4089 13.7841 12.972 14.076C11.963 14.75 10.56 14.75 7.75 14.75C4.94 14.75 3.537 14.75 2.528 14.076C2.09106 13.7841 1.71591 13.4089 1.424 12.972C0.75 11.963 0.75 10.56 0.75 7.75Z" stroke="#F3FE00" stroke-width="1.5"/>
<path d="M8.607 4.75L5.75 7.75H9.75L6.893 10.75" stroke="#F3FE00" stroke-width="1.5" stroke-linecap="round" stroke-linejoin="round"/>
</svg>
