<svg width="40" height="40" viewBox="0 0 40 40" fill="none" xmlns="http://www.w3.org/2000/svg">
<path opacity="0.5" d="M3.33594 19.9997C3.33594 10.7947 10.7976 3.33301 20.0026 3.33301C29.2076 3.33301 36.6693 10.7947 36.6693 19.9997C36.6693 29.2047 29.2076 36.6663 20.0026 36.6663C10.7976 36.6663 3.33594 29.2047 3.33594 19.9997Z" fill="white"/>
<path d="M18.7098 14.2812L15.3515 16.9562C13.9431 18.0779 13.2381 18.6396 13.3765 19.2646L13.3831 19.2962C13.5398 19.9179 14.4331 20.1579 16.2198 20.6362C17.2115 20.9029 17.7081 21.0362 17.9415 21.4112L17.9531 21.4312C18.1781 21.8129 18.0498 22.2896 17.7948 23.2429L17.7281 23.4929C17.0181 26.1362 16.6648 27.4579 17.3465 27.8846C18.0281 28.3112 19.1131 27.4479 21.2848 25.7179L24.6431 23.0446C26.0531 21.9212 26.7565 21.3612 26.6198 20.7346L26.6131 20.7029C26.4548 20.0812 25.5631 19.8412 23.7765 19.3629C22.7848 19.0962 22.2881 18.9629 22.0548 18.5879L22.0431 18.5679C21.8181 18.1879 21.9465 17.7112 22.2015 16.7579L22.2681 16.5079C22.9765 13.8646 23.3315 12.5412 22.6498 12.1146C21.9681 11.6879 20.8815 12.5529 18.7098 14.2812Z" fill="white"/>
</svg>
