<svg width="40" height="40" viewBox="0 0 40 40" fill="none" xmlns="http://www.w3.org/2000/svg">
<path fill-rule="evenodd" clip-rule="evenodd" d="M23.3359 34.1663V7.08301C23.3359 5.86967 23.3326 5.08301 23.2559 4.50634C23.1826 3.96467 23.0643 3.79467 22.9693 3.69967C22.8743 3.60467 22.7043 3.48634 22.1626 3.41301C21.5843 3.33634 20.7993 3.33301 19.5859 3.33301C18.3726 3.33301 17.5859 3.33634 17.0093 3.41301C16.4676 3.48634 16.2976 3.60467 16.2026 3.69967C16.1076 3.79467 15.9893 3.96467 15.9159 4.50634C15.8393 5.08467 15.8359 5.86967 15.8359 7.08301V34.1663H23.3359Z" fill="white"/>
<path opacity="0.7" d="M13.3359 14.583C13.3359 14.2515 13.2042 13.9335 12.9698 13.6991C12.7354 13.4647 12.4175 13.333 12.0859 13.333H7.08594C6.75442 13.333 6.43647 13.4647 6.20205 13.6991C5.96763 13.9335 5.83594 14.2515 5.83594 14.583V34.1663H13.3359V14.583ZM33.3359 22.9163C33.3359 22.5848 33.2042 22.2669 32.9698 22.0325C32.7354 21.798 32.4175 21.6663 32.0859 21.6663H27.0859C26.7544 21.6663 26.4365 21.798 26.2021 22.0325C25.9676 22.2669 25.8359 22.5848 25.8359 22.9163V34.1663H33.3359V22.9163Z" fill="white"/>
<path opacity="0.5" d="M2.91406 34.167C2.58254 34.167 2.2646 34.2987 2.03018 34.5331C1.79576 34.7675 1.66406 35.0855 1.66406 35.417C1.66406 35.7485 1.79576 36.0665 2.03018 36.3009C2.2646 36.5353 2.58254 36.667 2.91406 36.667H36.2474C36.5789 36.667 36.8969 36.5353 37.1313 36.3009C37.3657 36.0665 37.4974 35.7485 37.4974 35.417C37.4974 35.0855 37.3657 34.7675 37.1313 34.5331C36.8969 34.2987 36.5789 34.167 36.2474 34.167H2.91406Z" fill="white"/>
</svg>
