<svg width="109" height="36" viewBox="0 0 109 36" fill="none" xmlns="http://www.w3.org/2000/svg">
<g clip-path="url(#clip0_1_3860)">
<path d="M45.823 0.920246H48.3042V0.332206H42.7539V0.920246H45.2251V7.30895H45.823V0.920246ZM50.5164 2.32556C50.2418 2.32211 49.9714 2.39359 49.7344 2.53232C49.4974 2.67105 49.3026 2.87179 49.1711 3.11294L49.0815 2.32556H48.6164V7.30895H49.1844V4.47839C49.1844 3.48171 49.6328 2.87373 50.5097 2.87373H51.1275V2.32556H50.5164ZM55.6581 2.32556V5.05646C55.6581 6.10297 55.12 6.86045 54.1136 6.86045C53.2865 6.86045 52.6887 6.33221 52.6887 5.20596V2.32556H52.1107V5.3156C52.1107 6.59134 52.8415 7.40862 54.0239 7.40862C54.3593 7.42864 54.6932 7.35074 54.9851 7.18441C55.277 7.01808 55.5143 6.77048 55.6681 6.47174L55.7578 7.30895H56.2228V2.32556H55.6581ZM57.4518 5.8837C57.4817 6.81061 58.2091 7.40862 59.5145 7.40862C60.6405 7.40862 61.4974 6.86045 61.4974 5.9136C61.4974 5.12623 61.049 4.72756 60.1622 4.59799L59.1059 4.43852C58.4283 4.34882 58.1393 4.09965 58.1393 3.62124C58.1393 3.04317 58.6774 2.71427 59.4447 2.71427C60.2319 2.71427 60.7999 3.07307 60.8198 3.75081H61.3978C61.3778 2.75413 60.5607 2.22589 59.4347 2.22589C58.3685 2.22589 57.5813 2.77407 57.5813 3.62124C57.5813 4.40862 58.0596 4.81726 58.9963 4.95679L60.0625 5.11626C60.6604 5.19599 60.9195 5.45513 60.9195 5.96344C60.9195 6.57141 60.3614 6.92025 59.4945 6.92025C58.6276 6.92025 58.0795 6.54151 58.0496 5.8837H57.4518ZM64.1082 7.30895H64.7359V6.77739H64.1879C64.1011 6.78808 64.0131 6.7785 63.9306 6.74941C63.8482 6.72032 63.7736 6.6725 63.7128 6.60972C63.652 6.54694 63.6065 6.4709 63.58 6.38759C63.5535 6.30427 63.5467 6.21595 63.5601 6.12955V2.84383H64.7459V2.32556H63.5601V1.04981H62.9921V1.90696C62.9921 2.19599 62.8825 2.32556 62.5636 2.32556H62.0455V2.84383H62.9921V6.16609C62.9738 6.31827 62.9899 6.47261 63.0391 6.61776C63.0883 6.7629 63.1695 6.89517 63.2765 7.00481C63.3836 7.11446 63.5139 7.1987 63.6578 7.25133C63.8017 7.30396 63.9556 7.32365 64.1082 7.30895ZM70.3958 4.66775C70.4194 4.34784 70.3751 4.02656 70.2659 3.72496C70.1566 3.42337 69.9849 3.14828 69.7619 2.91772C69.5389 2.68716 69.2697 2.50634 68.972 2.38712C68.6742 2.26789 68.3547 2.21295 68.0342 2.22589C67.7005 2.21719 67.3688 2.27938 67.0609 2.40835C66.753 2.53733 66.476 2.73017 66.2481 2.97412C66.0202 3.21808 65.8466 3.50762 65.7388 3.82362C65.631 4.13961 65.5915 4.47488 65.6228 4.80729C65.5919 5.14128 65.6324 5.47803 65.7416 5.79517C65.8508 6.11231 66.0262 6.40259 66.2561 6.64673C66.4861 6.89087 66.7653 7.08329 67.0753 7.21121C67.3853 7.33913 67.719 7.39963 68.0542 7.38868C68.5588 7.41249 69.0569 7.26636 69.4688 6.97366C69.8807 6.68096 70.1825 6.25858 70.3261 5.77407H69.7382C69.6109 6.11391 69.3796 6.40485 69.0771 6.60532C68.7747 6.8058 68.4167 6.90555 68.0542 6.89035C67.8048 6.90007 67.5561 6.85692 67.3246 6.76374C67.0931 6.67055 66.8839 6.52944 66.7107 6.34966C66.5376 6.16988 66.4044 5.95551 66.3199 5.72061C66.2355 5.48571 66.2016 5.23559 66.2207 4.98669H70.3958V4.66775ZM68.0342 2.71427C68.2699 2.70552 68.5048 2.74585 68.7241 2.83267C68.9433 2.9195 69.1422 3.05095 69.308 3.21867C69.4738 3.3864 69.603 3.58675 69.6873 3.80703C69.7717 4.02731 69.8094 4.26271 69.798 4.49832H66.2306C66.2275 4.26148 66.2722 4.02646 66.362 3.80729C66.4518 3.58812 66.5848 3.38932 66.7532 3.22277C66.9216 3.05622 67.1218 2.92535 67.3419 2.83797C67.562 2.7506 67.7975 2.70853 68.0342 2.71427ZM75.7269 0.0332031V3.2126C75.5193 2.8979 75.2343 2.64186 74.8993 2.46907C74.5643 2.29628 74.1904 2.21254 73.8137 2.22589C73.4803 2.22739 73.1509 2.29802 72.8461 2.43333C72.5414 2.56863 72.268 2.76567 72.0433 3.012C71.8186 3.25833 71.6473 3.54859 71.5404 3.86446C71.4335 4.18033 71.3933 4.51494 71.4222 4.84716C71.3939 5.17632 71.435 5.50777 71.5428 5.82003C71.6507 6.1323 71.823 6.41843 72.0484 6.6599C72.2738 6.90136 72.5475 7.09278 72.8516 7.22176C73.1557 7.35073 73.4835 7.41439 73.8137 7.40862C74.192 7.41791 74.5663 7.3303 74.9012 7.15411C75.2361 6.97792 75.5203 6.71901 75.7269 6.40197L75.8266 7.30895H76.3049V0.0332031H75.7269ZM73.8635 6.91028C72.7874 6.91028 72.0201 6.1528 72.0201 4.85048C72.0201 3.56476 72.7674 2.74749 73.8635 2.73752C74.8899 2.72756 75.707 3.5548 75.707 4.85048C75.7349 5.10962 75.7081 5.37173 75.6283 5.61984C75.5484 5.86794 75.4174 6.0965 75.2436 6.2907C75.0698 6.4849 74.8571 6.6404 74.6194 6.74714C74.3816 6.85387 74.1241 6.90945 73.8635 6.91028ZM79.6231 4.82722C79.5988 5.16482 79.6459 5.50375 79.7613 5.82194C79.8766 6.14013 80.0577 6.43044 80.2928 6.67397C80.5278 6.9175 80.8114 7.10878 81.1253 7.23536C81.4391 7.36193 81.7761 7.42097 82.1143 7.40862C82.4525 7.42097 82.7894 7.36193 83.1033 7.23536C83.4171 7.10878 83.7008 6.9175 83.9358 6.67397C84.1708 6.43044 84.3519 6.14013 84.4673 5.82194C84.5827 5.50375 84.6297 5.16482 84.6054 4.82722C84.6317 4.48824 84.5862 4.14753 84.4718 3.82736C84.3574 3.50719 84.1767 3.21478 83.9416 2.96924C83.7064 2.72371 83.4221 2.53058 83.1073 2.40249C82.7924 2.27439 82.454 2.21422 82.1143 2.22589C81.7746 2.21422 81.4362 2.27439 81.1213 2.40249C80.8064 2.53058 80.5221 2.72371 80.287 2.96924C80.0518 3.21478 79.8712 3.50719 79.7568 3.82736C79.6424 4.14753 79.5968 4.48824 79.6231 4.82722ZM80.221 4.81726C80.1907 4.55192 80.2172 4.28317 80.2989 4.0289C80.3805 3.77463 80.5154 3.54068 80.6946 3.34265C80.8737 3.14461 81.093 2.98702 81.3378 2.88039C81.5826 2.77376 81.8473 2.72052 82.1143 2.72423C82.3813 2.72052 82.646 2.77376 82.8908 2.88039C83.1356 2.98702 83.3548 3.14461 83.534 3.34265C83.7131 3.54068 83.848 3.77463 83.9297 4.0289C84.0113 4.28317 84.0379 4.55192 84.0076 4.81726C84.0369 5.08192 84.0096 5.3498 83.9275 5.6031C83.8453 5.85639 83.7102 6.08929 83.5311 6.28633C83.352 6.48337 83.1331 6.64002 82.8888 6.74588C82.6445 6.85175 82.3805 6.90439 82.1143 6.90031C81.8481 6.90439 81.5841 6.85175 81.3398 6.74588C81.0955 6.64002 80.8765 6.48337 80.6974 6.28633C80.5183 6.08929 80.3832 5.85639 80.3011 5.6031C80.2189 5.3498 80.1916 5.08192 80.221 4.81726ZM88.1828 2.22589C87.8399 2.20054 87.4971 2.27565 87.1963 2.44203C86.8954 2.60842 86.6496 2.85887 86.4888 3.16277L86.3991 2.32556H85.9307V7.30895H86.4987V4.57805C86.4987 3.53154 87.0468 2.77407 88.0931 2.77407C88.9567 2.77407 89.5678 3.30563 89.5678 4.42855V7.30895H90.1458V4.31892C90.1763 4.04772 90.1476 3.77312 90.0616 3.51411C89.9756 3.25511 89.8343 3.01788 89.6477 2.81884C89.461 2.6198 89.2333 2.46369 88.9804 2.36131C88.7274 2.25893 88.4553 2.21273 88.1828 2.22589Z" fill="white"/>
<path d="M88.3197 12.8109C87.2333 12.863 86.1474 12.6969 85.1261 12.3225C84.1049 11.9481 83.1689 11.3729 82.3735 10.6309C81.5781 11.373 80.6422 11.9482 79.6209 12.3226C78.5996 12.697 77.5137 12.8631 76.4273 12.8109C76.4273 16.7166 75.5909 22.3126 82.3735 24.5843C89.1561 22.3119 88.3197 16.7166 88.3197 12.8109Z" fill="#3672FF"/>
<path d="M79.7148 17.8058L81.7622 19.9321L85.6936 15.8596L85.129 15.2822L81.7622 18.7706L80.2715 17.2244L79.7148 17.8058Z" fill="white"/>
<path d="M50.2901 13.9803V16.6713H49.5248L49.1422 14.8773H47.3247V21.6109L48.5922 21.8979V22.5916H44.5027V21.8979L45.7728 21.6109V14.8773H43.9407L43.57 16.6713H42.8047V13.9803H50.2901ZM52.0957 19.5298C52.0809 19.992 52.1624 20.4523 52.3349 20.8813C52.4376 21.1426 52.6199 21.3649 52.856 21.5168C53.0921 21.6687 53.3699 21.7426 53.6502 21.7278C54.0137 21.7267 54.3726 21.6472 54.7025 21.4946C55.0539 21.3321 55.3583 21.0832 55.5873 20.771L56.2331 21.2733C55.9345 21.6898 55.5492 22.0367 55.1037 22.2899C54.568 22.5843 53.9629 22.7289 53.3519 22.7085C52.8257 22.7238 52.3045 22.6022 51.8393 22.3557C51.4192 22.1188 51.0828 21.7573 50.8767 21.3212C50.752 21.0611 50.6627 20.7856 50.611 20.5019C50.5529 20.1763 50.5249 19.846 50.5273 19.5152C50.4678 18.588 50.739 17.6698 51.2926 16.9238C51.564 16.6149 51.9025 16.3723 52.2821 16.2145C52.6618 16.0567 53.0725 15.988 53.4828 16.0135C53.8822 16.0088 54.2792 16.0764 54.6547 16.2129C54.9886 16.3338 55.2925 16.5256 55.5455 16.775C55.7957 17.0296 55.9875 17.3357 56.1075 17.672C56.2449 18.0576 56.3124 18.4647 56.3068 18.874C56.3068 18.9626 56.3048 19.0483 56.3008 19.1311C56.2968 19.214 56.2869 19.3469 56.2709 19.5298H52.0957ZM53.4589 16.8388C52.6378 16.8388 52.1874 17.4811 52.1077 18.7657H54.741V18.4547C54.7694 18.0299 54.6522 17.6081 54.4089 17.2587C54.295 17.1185 54.1496 17.0073 53.9844 16.9343C53.8193 16.8613 53.6392 16.8286 53.4589 16.8388ZM60.3106 16.0135C60.6539 16.0109 60.9959 16.0556 61.327 16.1464C61.616 16.2238 61.8892 16.3513 62.1341 16.5232C62.3533 16.6782 62.535 16.8805 62.6656 17.1152C62.7939 17.3497 62.8598 17.6133 62.8569 17.8806C62.8673 18.0295 62.8473 18.179 62.7979 18.3199C62.7486 18.4608 62.671 18.5901 62.5699 18.6999C62.4773 18.7918 62.3671 18.8641 62.2458 18.9124C62.1246 18.9607 61.9949 18.984 61.8644 18.981C61.7286 18.9858 61.5936 18.9592 61.4698 18.9032C61.3704 18.8548 61.2827 18.7854 61.2127 18.6999C61.1456 18.6174 61.0967 18.5216 61.0692 18.4188C61.0416 18.3175 61.0276 18.2129 61.0274 18.1079C61.0225 17.9251 61.0748 17.7453 61.1768 17.5936C61.2871 17.4425 61.4451 17.3329 61.6253 17.2826C61.4921 17.1239 61.3186 17.004 61.123 16.9358C60.8825 16.8445 60.6269 16.7994 60.3697 16.8029C60.1376 16.7987 59.9073 16.844 59.6941 16.9358C59.4926 17.0287 59.3208 17.1757 59.1979 17.3604C59.0454 17.5972 58.9398 17.8611 58.887 18.1378C58.8087 18.5295 58.7726 18.9284 58.7794 19.3278C58.7713 19.6687 58.7994 20.0095 58.8631 20.3444C58.9107 20.5686 58.987 20.7857 59.0903 20.9903C59.2066 21.2091 59.375 21.396 59.5805 21.5345C59.8103 21.675 60.0766 21.7444 60.3458 21.7338C60.5169 21.7324 60.6873 21.7124 60.854 21.674C61.0347 21.6337 61.2109 21.5756 61.3801 21.5006C61.5547 21.4229 61.7193 21.3245 61.8704 21.2075C62.0284 21.0852 62.1675 20.9401 62.2829 20.777L62.9286 21.2793C62.6019 21.7555 62.1543 22.1362 61.6319 22.3823C61.1371 22.6025 60.601 22.7147 60.0595 22.7112C59.5363 22.7287 59.0175 22.6113 58.5528 22.3703C58.1427 22.1397 57.8099 21.7929 57.5962 21.3737C57.4524 21.0958 57.3459 20.8003 57.2793 20.4946C57.2012 20.1425 57.1631 19.7828 57.1657 19.4222C57.1593 18.945 57.232 18.4702 57.381 18.0168C57.5118 17.6203 57.7213 17.2542 57.9968 16.9404C58.2683 16.6383 58.6059 16.4029 58.9833 16.2527C59.4059 16.0873 59.8568 16.0061 60.3106 16.0135ZM68.5374 19.3863C68.5374 19.1311 68.5334 18.9096 68.5254 18.7218C68.5175 18.534 68.5064 18.3708 68.4922 18.2321C68.4838 18.1129 68.4638 17.9947 68.4324 17.8793C68.4082 17.7937 68.3782 17.7098 68.3428 17.6281C68.2458 17.4379 68.0947 17.2808 67.9085 17.1764C67.7222 17.0721 67.5093 17.0254 67.2965 17.0421C67.0706 17.0428 66.8485 17.1004 66.6508 17.2095C66.4453 17.3193 66.2753 17.4853 66.1605 17.6879C66.0859 17.8276 66.0296 17.9764 65.9931 18.1305C65.9408 18.3538 65.9167 18.5828 65.9214 18.8122V21.6946L66.7225 21.9218V22.5916H63.4793V21.9218L64.4001 21.6946V14.1597L63.4793 13.9325V13.2627H65.9187V17.2574C66.1111 16.8897 66.3928 16.5762 66.7378 16.3458C67.069 16.126 67.4584 16.0103 67.8558 16.0135C68.1498 16.0061 68.4429 16.0486 68.7227 16.1391C68.9566 16.2215 69.1676 16.3581 69.3386 16.5378C69.604 16.8267 69.7913 17.1787 69.8826 17.5604C70.0115 18.1068 70.0698 18.6675 70.056 19.2288V21.6946L70.9768 21.9218V22.5916H67.7362V21.9218L68.5374 21.6946V19.3863ZM49.9792 29.3384C49.981 29.785 49.8194 30.2168 49.5248 30.5524C49.3805 30.7166 49.2085 30.8542 49.0167 30.959C48.8182 31.0677 48.6013 31.1387 48.3769 31.1683V31.2162C48.9392 31.3195 49.4542 31.5987 49.8477 32.0135C50.2081 32.4136 50.4007 32.937 50.3858 33.4753C50.3899 33.9152 50.2675 34.347 50.033 34.7192C49.8185 35.0747 49.5103 35.3643 49.1422 35.5564C49.0249 35.6144 48.9029 35.6625 48.7775 35.6999C48.6265 35.7441 48.4727 35.7781 48.3171 35.8016C48.119 35.8318 47.9194 35.8517 47.7193 35.8614C47.496 35.8742 47.237 35.8806 46.942 35.8806H43.008V35.1869L44.0124 34.9358V28.2142L43.008 27.963V27.2693H47.3844C48.0836 27.2239 48.7745 27.4414 49.3216 27.8793C49.5266 28.0675 49.6913 28.2954 49.8059 28.5491C49.9198 28.7966 49.9789 29.0659 49.9792 29.3384ZM45.5669 31.8275V34.9836H46.5235C46.8196 34.9887 47.1156 34.9687 47.4084 34.9238C47.6053 34.893 47.7955 34.8283 47.9704 34.7325C48.1948 34.6117 48.3781 34.4266 48.4965 34.2009C48.6362 33.9415 48.7063 33.6503 48.6998 33.3557C48.7076 33.1112 48.6542 32.8686 48.5443 32.6501C48.4464 32.4656 48.3122 32.3029 48.1497 32.1717C47.9854 32.0501 47.7983 31.9627 47.5997 31.9145C47.3168 31.848 47.0266 31.8178 46.7361 31.8248L45.5669 31.8275ZM45.5669 30.9544H46.7029C46.9259 30.9735 47.1505 30.9461 47.3625 30.8741C47.5745 30.802 47.7692 30.6868 47.9345 30.5358C48.062 30.4134 48.1672 30.2697 48.2454 30.1112C48.3322 29.9259 48.3772 29.7238 48.3772 29.5192C48.3772 29.3146 48.3322 29.1124 48.2454 28.9271C48.1672 28.7686 48.062 28.6249 47.9345 28.5026C47.6023 28.2321 47.1771 28.1032 46.7507 28.1438H45.5669V30.9544ZM52.8743 32.8202C52.8595 33.2824 52.9409 33.7426 53.1135 34.1717C53.2158 34.4334 53.3979 34.6563 53.634 34.8088C53.8701 34.9612 54.1482 35.0354 54.4288 35.0208C54.7922 35.0198 55.1512 34.9402 55.4811 34.7876C55.8324 34.6252 56.1369 34.3762 56.3659 34.064L57.0116 34.5663C56.7131 34.9829 56.3278 35.3297 55.8823 35.583C55.3466 35.8773 54.7414 36.0219 54.1305 36.0016C53.6043 36.0168 53.0831 35.8953 52.6179 35.6487C52.1977 35.4118 51.8614 35.0503 51.6553 34.6142C51.5306 34.3542 51.4412 34.0786 51.3896 33.7949C51.3315 33.4693 51.3034 33.139 51.3059 32.8082C51.2464 31.8811 51.5176 30.9629 52.0711 30.2168C52.342 29.9074 52.6801 29.6642 53.0595 29.5057C53.439 29.3472 53.8496 29.2777 54.2601 29.3026C54.6595 29.2979 55.0565 29.3654 55.4319 29.5019C55.7683 29.6208 56.0735 29.814 56.325 30.067C56.5766 30.3201 56.7679 30.6266 56.8847 30.9637C57.0222 31.3493 57.0897 31.7563 57.084 32.1657C57.084 32.2543 57.082 32.34 57.0781 32.4228C57.0741 32.5057 57.0641 32.6386 57.0482 32.8215L52.8743 32.8202ZM54.2375 30.1291C53.4164 30.1291 52.966 30.7714 52.8863 32.056H55.5169V31.7451C55.5453 31.3202 55.4281 30.8984 55.1848 30.5491C55.0712 30.4088 54.926 30.2975 54.7611 30.2243C54.5962 30.151 54.4163 30.118 54.2361 30.1278L54.2375 30.1291ZM62.7871 32.6766C62.7871 32.4215 62.7831 32.2 62.7752 32.0122C62.7672 31.8244 62.7572 31.6609 62.7453 31.5218C62.7368 31.4026 62.7168 31.2844 62.6855 31.169C62.6612 31.0834 62.6313 30.9995 62.5958 30.9178C62.4985 30.7266 62.3464 30.5688 62.159 30.4644C61.9716 30.36 61.7573 30.3139 61.5435 30.3318C61.3177 30.3325 61.0956 30.3901 60.8978 30.4992C60.6924 30.609 60.5224 30.775 60.4076 30.9776C60.333 31.1173 60.2767 31.2661 60.2402 31.4202C60.1879 31.6435 60.1638 31.8726 60.1684 32.1019V34.9836L60.9696 35.2109V35.8806H57.7304V35.2109L58.6511 34.9836V27.4487L57.7304 27.2215V26.5517H60.1698V30.5464C60.3612 30.1791 60.6417 29.8657 60.9855 29.6348C61.3167 29.415 61.7061 29.2993 62.1036 29.3026C62.3976 29.2952 62.6907 29.3376 62.9705 29.4281C63.2043 29.5106 63.4154 29.6472 63.5863 29.8268C63.8518 30.1158 64.0391 30.4678 64.1304 30.8494C64.2593 31.3958 64.3176 31.9566 64.3038 32.5178V34.9836L65.2245 35.2109V35.8806H61.982V35.2109L62.7831 34.9836L62.7871 32.6766ZM67.3908 32.8202C67.376 33.2824 67.4574 33.7426 67.63 34.1717C67.7329 34.4325 67.915 34.6544 68.1508 34.806C68.3866 34.9577 68.664 35.0314 68.944 35.0168C69.3074 35.0158 69.6663 34.9362 69.9962 34.7836C70.3483 34.6223 70.6537 34.3742 70.8837 34.0627L71.5295 34.565C71.2309 34.9815 70.8456 35.3284 70.4001 35.5816C69.8644 35.876 69.2593 36.0206 68.6483 36.0002C68.1221 36.0155 67.6009 35.8939 67.1357 35.6474C66.7133 35.4114 66.3748 35.0499 66.1671 34.6129C66.0425 34.3528 65.9531 34.0773 65.9014 33.7936C65.8433 33.468 65.8153 33.1377 65.8177 32.8069C65.7583 31.8797 66.0294 30.9615 66.583 30.2155C66.8545 29.9057 67.1934 29.6623 67.5737 29.504C67.954 29.3457 68.3655 29.2768 68.7766 29.3026C69.176 29.2979 69.573 29.3654 69.9484 29.5019C70.2848 29.6208 70.59 29.814 70.8415 30.067C71.0931 30.3201 71.2844 30.6266 71.4012 30.9637C71.5387 31.3493 71.6062 31.7563 71.6005 32.1657C71.6005 32.2543 71.5985 32.34 71.5946 32.4228C71.5906 32.5057 71.5806 32.6386 71.5647 32.8215L67.3908 32.8202ZM68.754 30.1291C67.9329 30.1291 67.4825 30.7714 67.4028 32.056H70.0334V31.7451C70.0618 31.3202 69.9446 30.8984 69.7013 30.5491C69.5877 30.4088 69.4425 30.2975 69.2776 30.2243C69.1127 30.151 68.9328 30.118 68.7526 30.1278L68.754 30.1291ZM73.3098 30.3205L72.3891 30.0933V29.4222H74.471L74.7367 30.6182H74.7846C75.006 30.2221 75.3265 29.8904 75.7146 29.6554C76.0861 29.4245 76.5148 29.3023 76.9522 29.3026C77.2556 29.2958 77.5564 29.3592 77.8311 29.4879C78.0546 29.5884 78.2468 29.7475 78.3871 29.9484C78.5329 30.1929 78.6379 30.4595 78.698 30.7378C78.9323 30.3054 79.2741 29.9408 79.6905 29.6793C80.0806 29.4329 80.5325 29.3023 80.9939 29.3026C81.2921 29.2975 81.5876 29.3609 81.8575 29.4879C82.0972 29.5981 82.3005 29.7745 82.4434 29.9962C82.5218 30.1228 82.5822 30.2597 82.6228 30.4029C82.6777 30.5969 82.7177 30.7948 82.7423 30.9949C82.7742 31.2301 82.7964 31.5072 82.8088 31.8261C82.8212 32.1451 82.8272 32.5198 82.8267 32.9504V34.9836L83.7474 35.2109V35.8806H80.495V35.2109L81.2961 34.9836V32.6753C81.2961 32.4202 81.2922 32.1987 81.2842 32.0109C81.2762 31.823 81.2643 31.6596 81.2483 31.5205C81.236 31.4017 81.216 31.2839 81.1885 31.1677C81.1679 31.0817 81.1399 30.9977 81.1048 30.9165C81.0461 30.7523 80.9347 30.6121 80.7879 30.5178C80.663 30.4439 80.5206 30.4047 80.3754 30.4042C80.1887 30.401 80.0027 30.4293 79.8254 30.4879C79.653 30.552 79.4949 30.6496 79.3603 30.775C79.1896 30.9278 79.0566 31.1182 78.9717 31.3311C78.8781 31.5944 78.8276 31.871 78.8223 32.1504V34.9836L79.6234 35.2109V35.8806H76.5012V35.2109L77.3023 34.9836V32.6753C77.3023 32.4202 77.2983 32.1987 77.2904 32.0109C77.2824 31.823 77.2704 31.6596 77.2545 31.5205C77.2421 31.4017 77.2221 31.2839 77.1947 31.1677C77.174 31.0817 77.146 30.9977 77.111 30.9165C77.0523 30.7523 76.9408 30.6121 76.7941 30.5178C76.6692 30.4439 76.5268 30.4047 76.3816 30.4042C76.1948 30.401 76.0089 30.4293 75.8315 30.4879C75.6591 30.552 75.5011 30.6496 75.3665 30.775C75.1957 30.9278 75.0627 31.1182 74.9779 31.3311C74.8842 31.5944 74.8338 31.871 74.8284 32.1504V34.9836L75.6296 35.2109V35.8806H72.3877V35.2109L73.3085 34.9836L73.3098 30.3205ZM90.5766 32.6527C90.5798 33.1418 90.5052 33.6283 90.3553 34.0939C90.226 34.5122 90.0078 34.8975 89.7156 35.2235C89.4567 35.4999 89.1316 35.7058 88.771 35.8215C87.9185 36.0607 87.0167 36.0607 86.1642 35.8215C85.8036 35.7058 85.4785 35.4999 85.2196 35.2235C84.9274 34.8975 84.7091 34.5122 84.5798 34.0939C84.2849 33.1558 84.2849 32.1497 84.5798 31.2115C84.7091 30.7933 84.9274 30.4079 85.2196 30.082C85.4785 29.8055 85.8036 29.5997 86.1642 29.484C87.0167 29.2448 87.9185 29.2448 88.771 29.484C89.1316 29.5997 89.4567 29.8055 89.7156 30.082C90.0078 30.4079 90.226 30.7933 90.3553 31.2115C90.5046 31.6768 90.5788 32.1628 90.5752 32.6514L90.5766 32.6527ZM86.3794 34.7218C86.5178 34.8726 86.6859 34.993 86.8733 35.0754C87.0606 35.1578 87.263 35.2003 87.4676 35.2003C87.6722 35.2003 87.8746 35.1578 88.0619 35.0754C88.2492 34.993 88.4174 34.8726 88.5557 34.7218C88.8645 34.0783 88.9966 33.3642 88.9384 32.6527C88.9966 31.9413 88.8645 31.2272 88.5557 30.5836C88.4174 30.4328 88.2492 30.3124 88.0619 30.23C87.8746 30.1477 87.6722 30.1051 87.4676 30.1051C87.263 30.1051 87.0606 30.1477 86.8733 30.23C86.6859 30.3124 86.5178 30.4328 86.3794 30.5836C86.0706 31.2272 85.9386 31.9413 85.9968 32.6527C85.9384 33.3636 86.07 34.0772 86.3781 34.7205L86.3794 34.7218ZM91.0788 29.5896L92.2506 29.4222L92.3941 27.9391L93.7559 27.7477V29.4222H95.2839V30.1996H93.7559V34.1105C93.7559 34.3816 93.7599 34.567 93.7679 34.6667C93.7726 34.7502 93.7887 34.8327 93.8157 34.9119C93.8443 34.9637 93.892 35.0023 93.9486 35.0195C94.0496 35.0483 94.1546 35.0604 94.2595 35.0554H95.0965V35.5816C94.6941 35.7098 94.2849 35.8156 93.8709 35.8986C93.5935 35.9575 93.3113 35.9915 93.0279 36.0002C92.8791 36.0167 92.7292 35.9818 92.6031 35.9013C92.4769 35.8208 92.3821 35.6996 92.3343 35.5577C92.2898 35.4408 92.2636 35.3178 92.2566 35.1929C92.2446 35.0454 92.2387 34.8202 92.2387 34.5172V30.1982H91.0788V29.5896ZM100.669 32.6753C100.669 32.4202 100.665 32.1987 100.657 32.0109C100.649 31.823 100.639 31.6596 100.627 31.5205C100.618 31.4012 100.598 31.2831 100.567 31.1677C100.543 31.0821 100.513 30.9982 100.477 30.9165C100.38 30.7253 100.228 30.5674 100.041 30.4631C99.8532 30.3587 99.6389 30.3125 99.4252 30.3305C99.1993 30.3311 98.9772 30.3887 98.7795 30.4979C98.574 30.6077 98.404 30.7736 98.2892 30.9763C98.2146 31.116 98.1583 31.2647 98.1218 31.4188C98.0695 31.6422 98.0454 31.8712 98.05 32.1006V34.9836L98.8512 35.2109V35.8806H95.6094V35.2109L96.5301 34.9836V27.4487L95.6094 27.2215V26.5517H98.0487V30.5464C98.2411 30.1787 98.5228 29.8653 98.8678 29.6348C99.199 29.415 99.5884 29.2993 99.9858 29.3026C100.28 29.2952 100.573 29.3376 100.853 29.4281C101.087 29.5106 101.298 29.6472 101.469 29.8268C101.734 30.1158 101.921 30.4678 102.013 30.8494C102.142 31.3958 102.2 31.9566 102.186 32.5178V34.9836L103.107 35.2109V35.8806H99.8663V35.2109L100.667 34.9836L100.669 32.6753ZM106.159 35.2707C106.348 35.2718 106.536 35.2517 106.721 35.2109C106.881 35.1765 107.036 35.1201 107.181 35.0434C107.304 34.979 107.41 34.8869 107.492 34.7743C107.567 34.6678 107.607 34.5401 107.605 34.4095C107.608 34.2565 107.555 34.1078 107.456 33.9909C107.346 33.8628 107.212 33.7573 107.061 33.68C106.885 33.5867 106.701 33.5087 106.511 33.4467C106.308 33.379 106.107 33.3125 105.908 33.2474C105.66 33.1755 105.418 33.0856 105.184 32.9783C104.954 32.8741 104.741 32.7371 104.55 32.5717C104.364 32.4097 104.212 32.2126 104.102 31.9916C103.985 31.7452 103.928 31.4748 103.935 31.2022C103.925 30.9397 103.976 30.6785 104.084 30.4389C104.192 30.1994 104.354 29.9879 104.556 29.8208C105.07 29.4427 105.701 29.2585 106.338 29.3006C106.673 29.2966 107.006 29.3368 107.33 29.4202C107.6 29.4882 107.855 29.6036 108.084 29.761C108.282 29.8987 108.447 30.0783 108.568 30.2873C108.683 30.4896 108.743 30.7188 108.741 30.9517C108.75 31.0669 108.735 31.1826 108.696 31.2916C108.658 31.4006 108.598 31.5007 108.52 31.5856C108.439 31.6598 108.344 31.717 108.24 31.754C108.136 31.791 108.026 31.8069 107.916 31.8009C107.701 31.8138 107.489 31.7479 107.318 31.6155C107.252 31.5636 107.198 31.4974 107.161 31.4219C107.124 31.3463 107.104 31.2632 107.103 31.179C107.104 31.0405 107.146 30.9053 107.223 30.7903C107.299 30.67 107.406 30.5728 107.534 30.5092C107.418 30.3543 107.263 30.2326 107.085 30.1564C106.863 30.0662 106.625 30.0234 106.386 30.0308C106.088 30.0078 105.792 30.0904 105.549 30.264C105.457 30.3447 105.384 30.4453 105.336 30.5582C105.288 30.6712 105.267 30.7935 105.274 30.9159C105.264 31.0508 105.287 31.1862 105.341 31.3102C105.395 31.4342 105.479 31.5431 105.585 31.6275C105.839 31.8051 106.122 31.9367 106.422 32.0162C106.741 32.1119 107.055 32.2115 107.366 32.3152C107.657 32.4097 107.936 32.5381 108.197 32.6979C108.43 32.8394 108.63 33.0291 108.783 33.2541C108.936 33.4912 109.013 33.7693 109.005 34.0514C109.01 34.3437 108.933 34.6315 108.783 34.8826C108.631 35.1309 108.422 35.3399 108.173 35.4926C107.891 35.666 107.582 35.7932 107.259 35.8693C106.887 35.96 106.505 36.0046 106.123 36.0022C105.499 36.0375 104.878 35.8922 104.335 35.5836C104.138 35.4678 103.974 35.3015 103.862 35.1019C103.749 34.9023 103.692 34.6765 103.695 34.4474C103.687 34.3079 103.707 34.1681 103.755 34.0365C103.802 33.905 103.875 33.7843 103.97 33.682C104.055 33.5936 104.158 33.5236 104.271 33.4763C104.384 33.429 104.505 33.4054 104.628 33.4069C104.817 33.4065 105.002 33.4627 105.159 33.5683C105.237 33.6166 105.301 33.6846 105.344 33.7655C105.387 33.8464 105.408 33.9372 105.405 34.0288C105.402 34.1784 105.356 34.324 105.272 34.4474C105.198 34.5696 105.095 34.6722 104.973 34.7464C105.075 34.8948 105.21 35.0176 105.367 35.1052C105.612 35.2304 105.885 35.2876 106.159 35.2707Z" fill="white"/>
<path fill-rule="evenodd" clip-rule="evenodd" d="M25.5029 15.7601H20.955V10.0738H32.3253C32.3253 11.1973 29.4349 15.7601 25.5029 15.7601ZM0 1.9495V0L6.62649 0.013289V0.00664452L24.4254 0C29.3977 0 32.3253 3.94684 32.3253 5.68638H4.71062C4.71062 3.85382 3.41987 1.9495 0 1.9495ZM4.71062 10.0738H15.9189V15.7601H4.71062V10.0738ZM15.9189 25.8332H4.71062V20.1468H15.9189V25.8332ZM20.9543 20.1468H25.9898C31.0937 20.1468 33.6247 24.2346 33.6247 25.8332H20.955L20.9543 20.1468ZM4.71062 30.2206H15.9189V32.6578H20.9543V30.2206L33.6247 30.2246C33.6247 32.2306 29.9783 35.9076 26.1526 35.9076H0V33.9575C3.39263 33.9575 4.71062 32.1635 4.71062 30.2206Z" fill="#3672FF"/>
</g>
<defs>
<clipPath id="clip0_1_3860">
<rect width="109" height="36" fill="white"/>
</clipPath>
</defs>
</svg>
