<svg width="166" height="48" viewBox="0 0 166 48" fill="none" xmlns="http://www.w3.org/2000/svg">
<g clip-path="url(#clip0_1_3716)">
<path d="M23.8005 23.0572C22.2151 24.4824 20.122 25.2723 17.8249 25.2723C12.7612 25.2723 9.04263 21.5537 9.04263 16.4482C9.04263 11.3427 12.6429 7.78061 17.8249 7.78061C20.0819 7.78061 22.2152 8.53233 23.8406 9.95751L24.9454 10.9076L29.8544 6.00049L28.6258 4.89202C25.7372 2.28373 21.9021 0.820312 17.8231 0.820312C8.72229 0.820312 2.11328 7.38745 2.11328 16.41C2.11328 25.3943 8.88064 32.1962 17.8231 32.1962C21.9785 32.1962 25.8537 30.7328 28.7058 28.0827L29.8926 26.9742L24.9072 22.0707L23.8005 23.0572Z" fill="white"/>
<path d="M17.5842 11.2637C18.9802 11.2637 20.3191 11.8183 21.3063 12.8055C22.2935 13.7926 22.8481 15.1315 22.8481 16.5276C22.8481 17.9237 22.2935 19.2626 21.3063 20.2497C20.3191 21.2369 18.9802 21.7915 17.5842 21.7915C16.1881 21.7915 14.8492 21.2369 13.862 20.2497C12.8748 19.2626 12.3203 17.9237 12.3203 16.5276C12.3203 15.1315 12.8748 13.7926 13.862 12.8055C14.8492 11.8183 16.1881 11.2637 17.5842 11.2637Z" fill="#FF3D2E"/>
</g>
<path d="M58 0.5L60.2451 7.40983H67.5106L61.6327 11.6803L63.8779 18.5902L58 14.3197L52.1221 18.5902L54.3673 11.6803L48.4894 7.40983H55.7549L58 0.5Z" fill="#FFE608"/>
<path d="M82 0.5L84.2451 7.40983H91.5106L85.6327 11.6803L87.8779 18.5902L82 14.3197L76.1221 18.5902L78.3673 11.6803L72.4894 7.40983H79.7549L82 0.5Z" fill="#FFE608"/>
<path d="M106 0.5L108.245 7.40983H115.511L109.633 11.6803L111.878 18.5902L106 14.3197L100.122 18.5902L102.367 11.6803L96.4894 7.40983H103.755L106 0.5Z" fill="#FFE608"/>
<path d="M130 0.5L132.245 7.40983H139.511L133.633 11.6803L135.878 18.5902L130 14.3197L124.122 18.5902L126.367 11.6803L120.489 7.40983H127.755L130 0.5Z" fill="#FFE608"/>
<path d="M154 0.5L156.245 7.40983H163.511L157.633 11.6803L159.878 18.5902L154 14.3197L148.122 18.5902L150.367 11.6803L144.489 7.40983H151.755L154 0.5Z" fill="url(#paint0_linear_1_3716)"/>
<path d="M48.9023 42.5V32.3145H52.3477C53.1452 32.3145 53.7969 32.4512 54.3027 32.7246C54.8132 32.9935 55.1914 33.3649 55.4375 33.8389C55.6836 34.3083 55.8066 34.8438 55.8066 35.4453C55.8066 36.0423 55.6836 36.5732 55.4375 37.0381C55.196 37.5029 54.82 37.8675 54.3096 38.1318C53.8037 38.3916 53.1543 38.5215 52.3613 38.5215H49.5859V37.4141H52.3203C52.8672 37.4141 53.307 37.3343 53.6396 37.1748C53.9723 37.0153 54.2139 36.7897 54.3643 36.498C54.5146 36.2018 54.5898 35.8509 54.5898 35.4453C54.5898 35.0352 54.5124 34.6774 54.3574 34.3721C54.207 34.0667 53.9655 33.8298 53.6328 33.6611C53.3001 33.4925 52.8581 33.4082 52.3066 33.4082H50.1328V42.5H48.9023ZM54.7676 42.5L52.3066 37.9199H53.7012L56.2031 42.5H54.7676ZM59.293 42.6777C58.8099 42.6777 58.3701 42.5866 57.9736 42.4043C57.5771 42.2174 57.2627 41.9486 57.0303 41.5977C56.7979 41.2467 56.6816 40.8229 56.6816 40.3262C56.6816 39.8887 56.7682 39.5355 56.9414 39.2666C57.1146 38.9932 57.3447 38.779 57.6318 38.624C57.9235 38.4645 58.2425 38.346 58.5889 38.2686C58.9398 38.1911 59.293 38.1296 59.6484 38.084C60.1133 38.0247 60.4893 37.9792 60.7764 37.9473C61.068 37.9154 61.2799 37.8607 61.4121 37.7832C61.5488 37.7057 61.6172 37.5736 61.6172 37.3867V37.3457C61.6172 36.8581 61.4827 36.4798 61.2139 36.2109C60.9495 35.9375 60.5462 35.8008 60.0039 35.8008C59.4479 35.8008 59.0104 35.9238 58.6914 36.1699C58.3724 36.4115 58.1491 36.6712 58.0215 36.9492L56.9004 36.5527C57.1009 36.0879 57.3675 35.7256 57.7002 35.4658C58.0374 35.2061 58.402 35.0238 58.7939 34.9189C59.1904 34.8141 59.5801 34.7617 59.9629 34.7617C60.209 34.7617 60.4915 34.7913 60.8105 34.8506C61.1296 34.9053 61.4395 35.0238 61.7402 35.2061C62.0456 35.3838 62.2962 35.6549 62.4922 36.0195C62.6927 36.3796 62.793 36.8626 62.793 37.4688V42.5H61.6172V41.4609H61.5625C61.485 41.625 61.3529 41.8027 61.166 41.9941C60.9792 42.181 60.7308 42.3428 60.4209 42.4795C60.1156 42.6117 59.7396 42.6777 59.293 42.6777ZM59.4707 41.625C59.9355 41.625 60.3275 41.5339 60.6465 41.3516C60.9655 41.1693 61.207 40.9346 61.3711 40.6475C61.5352 40.3558 61.6172 40.0527 61.6172 39.7383V38.6582C61.5671 38.7174 61.4577 38.7721 61.2891 38.8223C61.125 38.8678 60.9336 38.9089 60.7148 38.9453C60.5007 38.9818 60.291 39.0137 60.0859 39.041C59.8809 39.0638 59.7168 39.082 59.5938 39.0957C59.2884 39.1367 59.0036 39.2028 58.7393 39.2939C58.4749 39.3805 58.2607 39.5104 58.0967 39.6836C57.9372 39.8568 57.8574 40.0938 57.8574 40.3945C57.8574 40.8001 58.0078 41.1077 58.3086 41.3174C58.6139 41.5225 59.0013 41.625 59.4707 41.625ZM67.6055 34.8574V35.8555H63.6543V34.8574H67.6055ZM64.8027 33.0391H65.9648V40.3125C65.9648 40.709 66.0469 41.0007 66.2109 41.1875C66.375 41.3698 66.6348 41.4609 66.9902 41.4609C67.0677 41.4609 67.1475 41.4564 67.2295 41.4473C67.3161 41.4382 67.4095 41.4245 67.5098 41.4062L67.7559 42.459C67.6465 42.5 67.512 42.5319 67.3525 42.5547C67.1976 42.582 67.0404 42.5957 66.8809 42.5957C66.2656 42.5957 65.7643 42.4134 65.377 42.0488C64.9941 41.6842 64.8027 41.2103 64.8027 40.627V33.0391ZM68.7266 42.5V34.8574H69.8887V42.5H68.7266ZM69.3145 33.5859C69.0866 33.5859 68.8906 33.5085 68.7266 33.3535C68.5625 33.1986 68.4805 33.0117 68.4805 32.793C68.4805 32.5742 68.5625 32.3874 68.7266 32.2324C68.8906 32.0775 69.0866 32 69.3145 32C69.5423 32 69.7383 32.0775 69.9023 32.2324C70.0664 32.3874 70.1484 32.5742 70.1484 32.793C70.1484 33.0117 70.0664 33.1986 69.9023 33.3535C69.7383 33.5085 69.5423 33.5859 69.3145 33.5859ZM72.5547 37.9062V42.5H71.3926V34.8574H72.5137V36.0605H72.623C72.8008 35.6686 73.0719 35.3542 73.4365 35.1172C73.8011 34.8802 74.2728 34.7617 74.8516 34.7617C75.3665 34.7617 75.8177 34.8665 76.2051 35.0762C76.5924 35.2858 76.8932 35.6048 77.1074 36.0332C77.3262 36.457 77.4355 36.9948 77.4355 37.6465V42.5H76.2734V37.7285C76.2734 37.1315 76.1162 36.6644 75.8018 36.3271C75.4873 35.9854 75.0589 35.8145 74.5166 35.8145C74.1429 35.8145 73.8079 35.8965 73.5117 36.0605C73.2155 36.2246 72.9808 36.4616 72.8076 36.7715C72.639 37.0814 72.5547 37.4596 72.5547 37.9062ZM82.0156 45.5215C81.1634 45.5215 80.4889 45.3665 79.9922 45.0566C79.5 44.7467 79.1354 44.3913 78.8984 43.9902L79.8281 43.334C79.9329 43.4753 80.0674 43.6348 80.2314 43.8125C80.3955 43.9948 80.6188 44.152 80.9014 44.2842C81.1839 44.4163 81.5553 44.4824 82.0156 44.4824C82.6309 44.4824 83.139 44.3343 83.54 44.0381C83.9456 43.7419 84.1484 43.2747 84.1484 42.6367V41.0918H84.0391C83.957 41.2285 83.8363 41.3994 83.6768 41.6045C83.5218 41.805 83.2962 41.985 83 42.1445C82.7083 42.2995 82.3118 42.377 81.8105 42.377C81.1953 42.377 80.6439 42.2311 80.1562 41.9395C79.6686 41.6478 79.2812 41.224 78.9941 40.668C78.7116 40.112 78.5703 39.4375 78.5703 38.6445C78.5703 37.8607 78.707 37.1794 78.9805 36.6006C79.2585 36.0173 79.6436 35.5661 80.1357 35.2471C80.6279 34.9235 81.1953 34.7617 81.8379 34.7617C82.3346 34.7617 82.7288 34.8438 83.0205 35.0078C83.3167 35.1719 83.5423 35.3587 83.6973 35.5684C83.8568 35.7734 83.9798 35.9421 84.0664 36.0742H84.1895V34.8574H85.3105V42.7188C85.3105 43.375 85.1624 43.9082 84.8662 44.3184C84.5745 44.7331 84.1781 45.0361 83.6768 45.2275C83.18 45.4235 82.6263 45.5215 82.0156 45.5215ZM81.9746 41.3242C82.681 41.3242 83.221 41.085 83.5947 40.6064C83.973 40.1279 84.1621 39.4648 84.1621 38.6172C84.1621 38.0658 84.0801 37.5804 83.916 37.1611C83.752 36.7419 83.5059 36.4137 83.1777 36.1768C82.8542 35.9352 82.4531 35.8145 81.9746 35.8145C81.4779 35.8145 81.0632 35.9421 80.7305 36.1973C80.4023 36.4479 80.1562 36.7852 79.9922 37.209C79.8281 37.6328 79.7461 38.1022 79.7461 38.6172C79.7461 39.1458 79.8281 39.6152 79.9922 40.0254C80.1608 40.431 80.4115 40.75 80.7441 40.9824C81.0768 41.2103 81.487 41.3242 81.9746 41.3242ZM93.2539 42.6367C92.6706 42.6367 92.1442 42.5228 91.6748 42.2949C91.21 42.0625 90.8363 41.7435 90.5537 41.3379C90.2712 40.9323 90.1185 40.472 90.0957 39.957H91.2852C91.3307 40.4128 91.5381 40.791 91.9072 41.0918C92.2809 41.3926 92.7298 41.543 93.2539 41.543C93.6732 41.543 94.0446 41.445 94.3682 41.249C94.6917 41.0531 94.9469 40.7842 95.1338 40.4424C95.3206 40.1006 95.4141 39.7109 95.4141 39.2734C95.4141 38.8314 95.3161 38.4349 95.1201 38.084C94.9287 37.7331 94.6644 37.4574 94.3271 37.2568C93.9899 37.0518 93.6048 36.9492 93.1719 36.9492C92.8574 36.9492 92.5361 36.9993 92.208 37.0996C91.8844 37.1953 91.6178 37.3184 91.4082 37.4688L90.2461 37.332L90.8613 32.3145H96.1523V33.4082H91.9004L91.5449 36.416H91.5996C91.8092 36.2474 92.0713 36.1107 92.3857 36.0059C92.7002 35.8965 93.0306 35.8418 93.377 35.8418C94.0013 35.8418 94.5573 35.9899 95.0449 36.2861C95.5326 36.5824 95.9154 36.988 96.1934 37.5029C96.4759 38.0133 96.6172 38.599 96.6172 39.2598C96.6172 39.9069 96.4714 40.4857 96.1797 40.9961C95.888 41.5065 95.4893 41.9076 94.9834 42.1992C94.4775 42.4909 93.901 42.6367 93.2539 42.6367ZM97.2871 44.9199L97.8887 41.0781H99.2422L98.1895 44.9199H97.2871ZM100.979 42.5V41.6113L104.342 37.9199C104.734 37.4915 105.055 37.1178 105.306 36.7988C105.561 36.4798 105.75 36.179 105.873 35.8965C106.001 35.6139 106.064 35.3177 106.064 35.0078C106.064 34.6478 105.978 34.3379 105.805 34.0781C105.636 33.8138 105.406 33.611 105.114 33.4697C104.823 33.3285 104.492 33.2578 104.123 33.2578C103.731 33.2578 103.389 33.3376 103.098 33.4971C102.811 33.6566 102.587 33.8822 102.428 34.1738C102.273 34.4609 102.195 34.7982 102.195 35.1855H101.02C101.02 34.5885 101.156 34.0645 101.43 33.6133C101.708 33.1621 102.084 32.8112 102.558 32.5605C103.036 32.3053 103.572 32.1777 104.164 32.1777C104.761 32.1777 105.29 32.3053 105.75 32.5605C106.21 32.8112 106.57 33.1507 106.83 33.5791C107.094 34.0029 107.227 34.4792 107.227 35.0078C107.227 35.3815 107.158 35.7461 107.021 36.1016C106.889 36.4525 106.657 36.8467 106.324 37.2842C105.996 37.7217 105.54 38.2526 104.957 38.877L102.674 41.3242V41.4062H107.404V42.5H100.979ZM112.121 42.6367C111.374 42.6367 110.736 42.4316 110.207 42.0215C109.678 41.6113 109.275 41.0189 108.997 40.2441C108.719 39.4648 108.58 38.5215 108.58 37.4141C108.58 36.3112 108.719 35.3701 108.997 34.5908C109.28 33.807 109.685 33.21 110.214 32.7998C110.743 32.3851 111.378 32.1777 112.121 32.1777C112.864 32.1777 113.5 32.3851 114.028 32.7998C114.557 33.21 114.96 33.807 115.238 34.5908C115.521 35.3701 115.662 36.3112 115.662 37.4141C115.662 38.5215 115.523 39.4648 115.245 40.2441C114.967 41.0189 114.564 41.6113 114.035 42.0215C113.511 42.4316 112.873 42.6367 112.121 42.6367ZM112.121 41.5566C112.627 41.5566 113.055 41.3949 113.406 41.0713C113.757 40.7432 114.024 40.2692 114.206 39.6494C114.393 39.0296 114.486 38.2845 114.486 37.4141C114.486 36.5391 114.393 35.7917 114.206 35.1719C114.024 34.5521 113.757 34.0781 113.406 33.75C113.055 33.4219 112.627 33.2578 112.121 33.2578C111.365 33.2578 110.781 33.6224 110.371 34.3516C109.961 35.0807 109.756 36.1016 109.756 37.4141C109.756 38.2845 109.847 39.0296 110.029 39.6494C110.216 40.2692 110.485 40.7432 110.836 41.0713C111.191 41.3949 111.62 41.5566 112.121 41.5566ZM120.201 42.5V34.8574H121.322V36.0195H121.404C121.546 35.6413 121.799 35.3359 122.163 35.1035C122.532 34.8665 122.945 34.748 123.4 34.748C123.487 34.748 123.594 34.7503 123.722 34.7549C123.849 34.7549 123.947 34.7572 124.016 34.7617V35.9512C123.975 35.9421 123.883 35.9284 123.742 35.9102C123.601 35.8919 123.451 35.8828 123.291 35.8828C122.922 35.8828 122.591 35.9603 122.3 36.1152C122.008 36.2702 121.778 36.4821 121.609 36.751C121.445 37.0199 121.363 37.3275 121.363 37.6738V42.5H120.201ZM127.721 42.6641C126.987 42.6641 126.351 42.5 125.813 42.1719C125.28 41.8438 124.87 41.3857 124.583 40.7979C124.296 40.2054 124.152 39.5195 124.152 38.7402C124.152 37.9564 124.294 37.266 124.576 36.6689C124.859 36.0719 125.255 35.6048 125.766 35.2676C126.281 34.9303 126.882 34.7617 127.57 34.7617C127.967 34.7617 128.361 34.8278 128.753 34.96C129.145 35.0921 129.5 35.3063 129.819 35.6025C130.143 35.8988 130.4 36.2907 130.592 36.7783C130.783 37.266 130.879 37.8652 130.879 38.5762V39.082H124.986V38.0703H130.243L129.703 38.4531C129.703 37.9427 129.623 37.4893 129.464 37.0928C129.304 36.6963 129.065 36.3841 128.746 36.1562C128.432 35.9284 128.04 35.8145 127.57 35.8145C127.101 35.8145 126.698 35.9307 126.36 36.1631C126.028 36.391 125.772 36.6895 125.595 37.0586C125.417 37.4277 125.328 37.8242 125.328 38.248V38.918C125.328 39.4967 125.428 39.9867 125.629 40.3877C125.829 40.7887 126.11 41.0941 126.47 41.3037C126.83 41.5088 127.247 41.6113 127.721 41.6113C128.026 41.6113 128.304 41.568 128.555 41.4814C128.805 41.3903 129.022 41.2559 129.204 41.0781C129.386 40.8958 129.525 40.6725 129.621 40.4082L130.756 40.7363C130.637 41.1191 130.437 41.4564 130.154 41.748C129.876 42.0352 129.53 42.2607 129.115 42.4248C128.701 42.5843 128.236 42.6641 127.721 42.6641ZM137.947 34.8574L135.131 42.5H133.928L131.111 34.8574H132.383L134.488 40.9551H134.57L136.676 34.8574H137.947ZM138.85 42.5V34.8574H140.012V42.5H138.85ZM139.438 33.5859C139.21 33.5859 139.014 33.5085 138.85 33.3535C138.686 33.1986 138.604 33.0117 138.604 32.793C138.604 32.5742 138.686 32.3874 138.85 32.2324C139.014 32.0775 139.21 32 139.438 32C139.665 32 139.861 32.0775 140.025 32.2324C140.189 32.3874 140.271 32.5742 140.271 32.793C140.271 33.0117 140.189 33.1986 140.025 33.3535C139.861 33.5085 139.665 33.5859 139.438 33.5859ZM144.715 42.6641C143.981 42.6641 143.345 42.5 142.808 42.1719C142.274 41.8438 141.864 41.3857 141.577 40.7979C141.29 40.2054 141.146 39.5195 141.146 38.7402C141.146 37.9564 141.288 37.266 141.57 36.6689C141.853 36.0719 142.249 35.6048 142.76 35.2676C143.275 34.9303 143.876 34.7617 144.564 34.7617C144.961 34.7617 145.355 34.8278 145.747 34.96C146.139 35.0921 146.494 35.3063 146.813 35.6025C147.137 35.8988 147.395 36.2907 147.586 36.7783C147.777 37.266 147.873 37.8652 147.873 38.5762V39.082H141.98V38.0703H147.237L146.697 38.4531C146.697 37.9427 146.618 37.4893 146.458 37.0928C146.299 36.6963 146.059 36.3841 145.74 36.1562C145.426 35.9284 145.034 35.8145 144.564 35.8145C144.095 35.8145 143.692 35.9307 143.354 36.1631C143.022 36.391 142.767 36.6895 142.589 37.0586C142.411 37.4277 142.322 37.8242 142.322 38.248V38.918C142.322 39.4967 142.423 39.9867 142.623 40.3877C142.824 40.7887 143.104 41.0941 143.464 41.3037C143.824 41.5088 144.241 41.6113 144.715 41.6113C145.02 41.6113 145.298 41.568 145.549 41.4814C145.799 41.3903 146.016 41.2559 146.198 41.0781C146.381 40.8958 146.52 40.6725 146.615 40.4082L147.75 40.7363C147.632 41.1191 147.431 41.4564 147.148 41.748C146.87 42.0352 146.524 42.2607 146.109 42.4248C145.695 42.5843 145.23 42.6641 144.715 42.6641ZM150.443 42.5L148.119 34.8574H149.35L151.004 40.709H151.086L152.713 34.8574H153.971L155.57 40.6953H155.652L157.307 34.8574H158.537L156.213 42.5H155.064L153.383 36.6348H153.273L151.592 42.5H150.443ZM164.84 36.5801L163.787 36.8672C163.687 36.6074 163.514 36.3613 163.268 36.1289C163.026 35.8919 162.648 35.7734 162.133 35.7734C161.668 35.7734 161.281 35.8828 160.971 36.1016C160.661 36.3158 160.506 36.5846 160.506 36.9082C160.506 37.1999 160.611 37.4323 160.82 37.6055C161.035 37.7786 161.367 37.9199 161.818 38.0293L162.953 38.3027C163.632 38.4668 164.138 38.7197 164.471 39.0615C164.808 39.4033 164.977 39.8385 164.977 40.3672C164.977 40.8047 164.851 41.1966 164.601 41.543C164.35 41.8893 164.001 42.1628 163.555 42.3633C163.108 42.5638 162.589 42.6641 161.996 42.6641C161.217 42.6641 160.572 42.4932 160.062 42.1514C159.556 41.8096 159.234 41.3151 159.098 40.668L160.205 40.3945C160.31 40.8047 160.51 41.1123 160.807 41.3174C161.107 41.5225 161.499 41.625 161.982 41.625C162.525 41.625 162.958 41.5088 163.281 41.2764C163.609 41.0394 163.773 40.7591 163.773 40.4355C163.773 39.8978 163.395 39.5378 162.639 39.3555L161.367 39.0547C160.665 38.8861 160.15 38.6286 159.822 38.2822C159.494 37.9359 159.33 37.5007 159.33 36.9766C159.33 36.5436 159.451 36.1608 159.692 35.8281C159.938 35.4954 160.273 35.2357 160.697 35.0488C161.121 34.8574 161.6 34.7617 162.133 34.7617C162.894 34.7617 163.489 34.9303 163.917 35.2676C164.35 35.6003 164.658 36.0378 164.84 36.5801Z" fill="#D3D3D3"/>
<defs>
<linearGradient id="paint0_linear_1_3716" x1="144" y1="10.5" x2="164" y2="10.5" gradientUnits="userSpaceOnUse">
<stop offset="0.5" stop-color="#FFE608"/>
<stop offset="0.5" stop-color="white"/>
</linearGradient>
<clipPath id="clip0_1_3716">
<rect width="32" height="32" fill="white" transform="translate(0 0.5)"/>
</clipPath>
</defs>
</svg>
