<svg width="30" height="30" viewBox="0 0 30 30" fill="none" xmlns="http://www.w3.org/2000/svg">
<path d="M20.6875 4.60135C20.6732 4.62103 20.666 4.64428 20.666 4.66754C20.666 4.69259 20.6732 4.71585 20.6875 4.73552C20.7036 4.75341 20.7233 4.76773 20.7465 4.77846L21.9434 5.20782C22.5982 5.44576 23.1903 5.82503 23.6841 6.31701C24.1779 6.8072 24.5571 7.40294 24.7915 8.05951L25.2226 9.251C25.2298 9.27426 25.2441 9.29573 25.2638 9.31004C25.2853 9.32435 25.3085 9.33151 25.3336 9.33151C25.3586 9.33151 25.3837 9.32435 25.4033 9.31004C25.4212 9.29215 25.4337 9.27247 25.4445 9.251L25.8756 8.05951C26.1118 7.40473 26.4893 6.80899 26.983 6.31701C27.4732 5.82146 28.0672 5.44218 28.7237 5.20782L29.9206 4.77846C29.9439 4.7713 29.9653 4.7552 29.9796 4.73552C29.9957 4.71585 30.0029 4.69259 30.0011 4.66754C30.0011 4.6425 29.9939 4.61745 29.9796 4.59777C29.9635 4.57988 29.9439 4.56557 29.9206 4.55662L28.7237 4.12547C28.0708 3.88574 27.4768 3.50647 26.983 3.01628C26.4893 2.52609 26.11 1.93214 25.8756 1.27557L25.4445 0.0805024C25.4373 0.0572452 25.423 0.0357794 25.4033 0.0214673C25.3837 0.00715519 25.3586 0 25.3336 0C25.3085 0 25.2835 0.00715519 25.2638 0.0214673C25.2459 0.0375685 25.2316 0.0572452 25.2226 0.0805024L24.7915 1.27915C24.5553 1.93392 24.1761 2.52788 23.6841 3.01986C23.1939 3.51542 22.5999 3.89468 21.9434 4.12905L20.7465 4.5602C20.7233 4.56736 20.7018 4.58167 20.6875 4.60135Z" fill="#0B0B0B"/>
<path d="M20.0026 10.0024H10.002V20.003H20.0026V10.0024Z" fill="#0B0B0B"/>
<path d="M24.9997 24.9997H5.0003V5.0003H18.3338L21.6346 0H0V30H30V8.36007C30 8.36007 24.9997 11.693 24.9997 11.6715V24.9997Z" fill="#0B0B0B"/>
</svg>
