<svg width="28" height="28" viewBox="0 0 28 28" fill="none" xmlns="http://www.w3.org/2000/svg">
<path d="M0 8C0 3.58172 3.58172 0 8 0H20C24.4183 0 28 3.58172 28 8V20C28 24.4183 24.4183 28 20 28H8C3.58172 28 0 24.4183 0 20V8Z" fill="#F3FE00"/>
<path d="M10.668 13.9998L14.8346 9L14.8346 13.1666L17.3346 13.1665L13.168 18.1666V14L10.668 13.9998Z" stroke="#0B0B0B" stroke-width="1.5" stroke-linecap="round" stroke-linejoin="round"/>
<path d="M6.8589 8.1124C9.47444 8.30059 11.1609 5.6679 14.0222 5.6679C16.8405 5.612 18.2196 8.14756 21.1089 8.14756C22.6578 15.9867 19.4355 20.911 14.0458 22.3336C9.04959 21.1529 5.29559 16.1781 6.8589 8.1124Z" stroke="#0B0B0B" stroke-width="1.5" stroke-linejoin="round"/>
</svg>
